<?xml version="1.0" encoding="UTF-8"?>
<svg xmlns="http://www.w3.org/2000/svg" xmlns:xlink="http://www.w3.org/1999/xlink" width="512px" height="512px" viewBox="0 0 512 512" version="1.1">
<g id="surface1">
<path style=" stroke:none;fill-rule:nonzero;fill:rgb(81.960784%,17.647059%,11.764706%);fill-opacity:1;" d="M 201 361.980469 L 258.039062 361.980469 L 396.5625 151.398438 L 201 302.796875 Z M 262.113281 375.742188 L 194.207031 375.742188 C 190.132812 375.742188 187.417969 372.992188 187.417969 368.863281 L 187.417969 300.042969 C 187.417969 297.292969 188.773438 295.914062 190.132812 294.539062 L 421.007812 115.613281 C 423.726562 114.238281 427.800781 114.238281 429.160156 115.613281 C 431.871094 118.367188 431.871094 121.121094 430.511719 123.871094 L 267.542969 371.613281 C 267.542969 375.742188 264.828125 375.742188 262.113281 375.742188 Z M 262.113281 375.742188 "/>
<path style=" stroke:none;fill-rule:nonzero;fill:rgb(81.960784%,17.647059%,11.764706%);fill-opacity:1;" d="M 454.957031 213.332031 L 446.8125 224.34375 C 469.894531 258.75 479.40625 294.535156 479.40625 344.085938 C 479.40625 372.988281 473.972656 401.890625 463.109375 428.039062 C 461.75 432.171875 463.109375 434.921875 467.183594 437.675781 C 468.542969 437.675781 468.542969 437.675781 469.894531 437.675781 C 472.613281 437.675781 475.328125 436.300781 476.6875 433.546875 C 487.550781 406.019531 492.984375 375.742188 492.984375 344.085938 C 492.984375 291.785156 482.121094 251.871094 457.675781 216.085938 C 456.316406 214.707031 456.316406 214.707031 454.957031 213.332031 Z M 454.957031 213.332031 "/>
<path style=" stroke:none;fill-rule:nonzero;fill:rgb(81.960784%,17.647059%,11.764706%);fill-opacity:1;" d="M 302.855469 119.738281 L 316.433594 108.730469 C 297.421875 103.222656 277.050781 100.472656 256.679688 100.472656 C 126.300781 100.472656 21.730469 206.449219 21.730469 337.203125 C 21.730469 367.480469 27.164062 397.761719 38.027344 425.289062 C 39.386719 428.039062 42.101562 429.417969 44.816406 429.417969 C 46.175781 429.417969 46.175781 429.417969 47.535156 429.417969 C 51.609375 428.039062 52.964844 423.910156 51.609375 419.78125 C 40.742188 393.632812 35.3125 364.730469 35.3125 335.828125 C 35.3125 211.953125 134.453125 112.859375 256.679688 112.859375 C 271.617188 114.234375 287.914062 116.988281 302.855469 119.738281 Z M 302.855469 119.738281 "/>
</g>
</svg>
