<?xml version="1.0" encoding="UTF-8"?>
<svg xmlns="http://www.w3.org/2000/svg" xmlns:xlink="http://www.w3.org/1999/xlink" width="192px" height="192px" viewBox="0 0 192 192" version="1.1">
<g id="surface1">
<path style=" stroke:none;fill-rule:nonzero;fill:rgb(81.960784%,17.647059%,11.764706%);fill-opacity:1;" d="M 75.375 135.742188 L 96.765625 135.742188 L 148.710938 56.773438 L 75.375 113.550781 Z M 98.292969 140.902344 L 72.828125 140.902344 C 71.300781 140.902344 70.28125 139.871094 70.28125 138.324219 L 70.28125 112.515625 C 70.28125 111.484375 70.789062 110.96875 71.300781 110.453125 L 157.878906 43.355469 C 158.898438 42.839844 160.425781 42.839844 160.933594 43.355469 C 161.953125 44.386719 161.953125 45.417969 161.441406 46.453125 L 100.328125 139.355469 C 100.328125 140.902344 99.3125 140.902344 98.292969 140.902344 Z M 98.292969 140.902344 "/>
<path style=" stroke:none;fill-rule:nonzero;fill:rgb(81.960784%,17.647059%,11.764706%);fill-opacity:1;" d="M 170.609375 80 L 167.554688 84.128906 C 176.210938 97.03125 179.777344 110.449219 179.777344 129.03125 C 179.777344 139.871094 177.738281 150.710938 173.664062 160.515625 C 173.15625 162.0625 173.664062 163.097656 175.195312 164.128906 C 175.703125 164.128906 175.703125 164.128906 176.210938 164.128906 C 177.230469 164.128906 178.25 163.613281 178.757812 162.578125 C 182.832031 152.257812 184.871094 140.902344 184.871094 129.03125 C 184.871094 109.417969 180.796875 94.449219 171.628906 81.03125 C 171.117188 80.515625 171.117188 80.515625 170.609375 80 Z M 170.609375 80 "/>
<path style=" stroke:none;fill-rule:nonzero;fill:rgb(81.960784%,17.647059%,11.764706%);fill-opacity:1;" d="M 113.570312 44.902344 L 118.664062 40.773438 C 111.535156 38.707031 103.894531 37.675781 96.253906 37.675781 C 47.363281 37.675781 8.148438 77.417969 8.148438 126.449219 C 8.148438 137.804688 10.1875 149.160156 14.261719 159.484375 C 14.769531 160.515625 15.789062 161.03125 16.804688 161.03125 C 17.316406 161.03125 17.316406 161.03125 17.824219 161.03125 C 19.351562 160.515625 19.863281 158.964844 19.351562 157.417969 C 15.277344 147.613281 13.242188 136.773438 13.242188 125.933594 C 13.242188 79.484375 50.417969 42.320312 96.253906 42.320312 C 101.855469 42.839844 107.96875 43.871094 113.570312 44.902344 Z M 113.570312 44.902344 "/>
</g>
</svg>
